<?xml version="1.0"?>
<svg xmlns="http://www.w3.org/2000/svg" viewBox="0 0 50 50">
    <path style="line-height:normal;text-indent:0;text-align:start;text-decoration-line:none;text-decoration-style:solid;text-decoration-color:#000;text-transform:none;block-progression:tb;isolation:auto;mix-blend-mode:normal" d="M 10 2 L 10 3 L 10 10 L 13 10 L 13 44 L 26 44 L 26 47 L 34 47 L 34 39 L 26 39 L 26 40 L 26 42 L 15 42 L 15 33 L 26 33 L 26 36 L 34 36 L 34 28 L 26 28 L 26 29 L 26 31 L 15 31 L 15 21 L 22.949219 21 C 24.425154 23.958686 27.474721 26 31 26 C 35.963 26 40 21.962 40 17 C 40 12.038 35.963 8 31 8 C 26.037 8 22 12.038 22 17 C 22 17.688343 22.085351 18.355533 22.232422 19 L 15 19 L 15 10 L 18 10 L 18 2 L 10 2 z M 12 4 L 16 4 L 16 8 L 12 8 L 12 4 z M 28 13 C 28.25575 13 28.511531 13.097469 28.707031 13.292969 L 31 15.585938 L 33.292969 13.292969 C 33.683969 12.901969 34.316031 12.901969 34.707031 13.292969 C 35.098031 13.683969 35.098031 14.316031 34.707031 14.707031 L 32.414062 17 L 34.707031 19.292969 C 35.098031 19.683969 35.098031 20.316031 34.707031 20.707031 C 34.512031 20.902031 34.256 21 34 21 C 33.744 21 33.487969 20.902031 33.292969 20.707031 L 31 18.414062 L 28.707031 20.707031 C 28.512031 20.902031 28.256 21 28 21 C 27.744 21 27.487969 20.902031 27.292969 20.707031 C 26.901969 20.316031 26.901969 19.683969 27.292969 19.292969 L 29.585938 17 L 27.292969 14.707031 C 26.901969 14.316031 26.901969 13.683969 27.292969 13.292969 C 27.488469 13.097469 27.74425 13 28 13 z M 28 30 L 32 30 L 32 34 L 28 34 L 28 30 z M 28 41 L 32 41 L 32 45 L 28 45 L 28 41 z"/>
</svg>
