<?xml version="1.0"?>
<svg xmlns="http://www.w3.org/2000/svg" viewBox="0 0 50 50">
    <path style="line-height:normal;text-indent:0;text-align:start;text-decoration-line:none;text-decoration-style:solid;text-decoration-color:#000;text-transform:none;block-progression:tb;isolation:auto;mix-blend-mode:normal" d="M 19 0 C 14.038 0 10 4.038 10 9 C 10 13.623417 13.507586 17.441451 18 17.941406 L 18 45 L 31 45 L 31 48 L 39 48 L 39 40 L 31 40 L 31 41 L 31 43 L 20 43 L 20 34 L 31 34 L 31 37 L 39 37 L 39 29 L 31 29 L 31 30 L 31 32 L 20 32 L 20 23 L 31 23 L 31 26 L 39 26 L 39 18 L 31 18 L 31 19 L 31 21 L 20 21 L 20 17.941406 C 24.492414 17.441451 28 13.623417 28 9 C 28 4.038 23.962 0 19 0 z M 16 5 C 16.25575 5 16.511531 5.0974688 16.707031 5.2929688 L 19 7.5859375 L 21.292969 5.2929688 C 21.683969 4.9019687 22.316031 4.9019688 22.707031 5.2929688 C 23.098031 5.6839688 23.098031 6.3160312 22.707031 6.7070312 L 20.414062 9 L 22.707031 11.292969 C 23.098031 11.683969 23.098031 12.316031 22.707031 12.707031 C 22.512031 12.902031 22.256 13 22 13 C 21.744 13 21.487969 12.902031 21.292969 12.707031 L 19 10.414062 L 16.707031 12.707031 C 16.512031 12.902031 16.256 13 16 13 C 15.744 13 15.487969 12.902031 15.292969 12.707031 C 14.901969 12.316031 14.901969 11.683969 15.292969 11.292969 L 17.585938 9 L 15.292969 6.7070312 C 14.901969 6.3160312 14.901969 5.6839688 15.292969 5.2929688 C 15.488469 5.0974687 15.74425 5 16 5 z M 33 20 L 37 20 L 37 24 L 33 24 L 33 20 z M 33 31 L 37 31 L 37 35 L 33 35 L 33 31 z M 33 42 L 37 42 L 37 46 L 33 46 L 33 42 z"/>
</svg>
